<?xml version="1.0" encoding="utf-8"?>
<!-- Generator: Adobe Illustrator 16.0.0, SVG Export Plug-In . SVG Version: 6.00 Build 0)  -->
<!DOCTYPE svg PUBLIC "-//W3C//DTD SVG 1.1//EN" "http://www.w3.org/Graphics/SVG/1.1/DTD/svg11.dtd">
<svg version="1.1" id="Layer_1" xmlns="http://www.w3.org/2000/svg" xmlns:xlink="http://www.w3.org/1999/xlink" x="0px" y="0px"
	 width="388px" height="67.333px" viewBox="0 0 388 67.333" enable-background="new 0 0 388 67.333" xml:space="preserve">
<g>
	<path fill="#47A7F6" d="M29.079,52.048c-7.365-5.188-11.814-14.431-10.83-24.488c0.386-3.934,1.581-7.576,3.365-10.793
		c-8.604,0.273-16.029,6.674-17.278,15.49c-1.391,9.821,5.409,18.914,15.206,20.375v0.002L17.947,63.89
		c7.557,0.051,14.517-3.439,19.067-9.086c-2.713-0.281-5.225-1.172-7.429-2.527C29.401,52.232,29.232,52.155,29.079,52.048z"/>
	<path fill="#47A7F6" d="M40.048,16.655l2.303-13.213C33.647,3.854,25.894,9.05,21.613,16.765c1.027-0.031,2.068,0.005,3.121,0.152
		c2.686,0.381,5.146,1.338,7.282,2.723c0.176,0.054,0.337,0.132,0.482,0.236c6.97,5.14,10.967,13.861,9.667,23.053
		c-0.64,4.519-2.483,8.564-5.15,11.873c0.056,0.007,0.11,0.017,0.166,0.021c10.204,0.961,19.331-7.01,20.387-17.803
		C58.621,26.278,50.179,17.689,40.048,16.655z"/>
	<path fill="#47A7F6" d="M32.498,19.878c-0.145-0.105-0.306-0.185-0.482-0.236c-2.135-1.385-4.596-2.342-7.282-2.723
		c-1.053-0.148-2.093-0.186-3.121-0.152c-1.784,3.217-2.979,6.859-3.365,10.793c-0.984,10.059,3.465,19.301,10.83,24.488
		c0.154,0.106,0.323,0.184,0.507,0.229c2.204,1.355,4.716,2.246,7.429,2.527c2.667-3.31,4.511-7.355,5.15-11.873
		C43.464,33.739,39.467,25.017,32.498,19.878z"/>
	<path fill="#146DED" d="M32.498,19.878c-0.145-0.105-0.306-0.185-0.482-0.236c-2.135-1.385-4.596-2.342-7.282-2.723
		c-1.053-0.148-2.093-0.186-3.121-0.152c-1.784,3.217-2.979,6.859-3.365,10.793c-0.984,10.059,3.465,19.301,10.83,24.488
		c0.154,0.106,0.323,0.184,0.507,0.229c2.204,1.355,4.716,2.246,7.429,2.527c2.667-3.31,4.511-7.355,5.15-11.873
		C43.464,33.739,39.467,25.017,32.498,19.878z"/>
</g>
<g>
	<path fill="#273444" d="M108.739,22.09c2.044,0,3.795,0.358,5.252,1.076c1.457,0.719,2.653,1.664,3.589,2.838
		c0.935,1.174,1.62,2.523,2.055,4.045c0.435,1.523,0.652,3.089,0.652,4.696v19.573h-7.829V36.963c0-0.914-0.064-1.869-0.195-2.871
		c-0.131-1-0.414-1.901-0.849-2.706c-0.435-0.805-1.033-1.469-1.794-1.989c-0.762-0.521-1.772-0.783-3.033-0.783
		c-1.219,0-2.263,0.263-3.132,0.783c-0.871,0.521-1.589,1.196-2.153,2.022c-0.565,0.826-0.979,1.749-1.239,2.77
		c-0.261,1.023-0.392,2.034-0.392,3.034v17.094h-7.829v-18.92c0-1.957-0.468-3.575-1.402-4.859
		c-0.937-1.281-2.404-1.925-4.404-1.925c-1.175,0-2.197,0.251-3.066,0.75c-0.871,0.501-1.577,1.144-2.12,1.927
		c-0.545,0.782-0.958,1.685-1.24,2.706c-0.283,1.021-0.424,2.054-0.424,3.099V54.32h-7.83V23.004h7.438v5.022h0.131
		c0.348-0.782,0.815-1.522,1.402-2.218c0.587-0.696,1.282-1.326,2.088-1.893c0.805-0.564,1.729-1.013,2.772-1.339
		c1.043-0.325,2.196-0.487,3.458-0.487c2.436,0,4.458,0.543,6.067,1.631s2.849,2.522,3.72,4.306
		c1.044-1.913,2.435-3.382,4.175-4.403C104.346,22.603,106.392,22.09,108.739,22.09z"/>
	<path fill="#273444" d="M126.159,38.53c0-2.48,0.446-4.73,1.338-6.752c0.891-2.021,2.098-3.751,3.621-5.186
		c1.521-1.437,3.327-2.545,5.415-3.328c2.088-0.783,4.306-1.174,6.654-1.174s4.567,0.391,6.655,1.174
		c2.088,0.783,3.892,1.893,5.415,3.328c1.522,1.435,2.729,3.164,3.621,5.186c0.891,2.022,1.337,4.272,1.337,6.752
		c0,2.479-0.446,4.74-1.337,6.784c-0.893,2.045-2.099,3.796-3.621,5.253c-1.523,1.457-3.327,2.6-5.415,3.425
		c-2.088,0.826-4.307,1.239-6.655,1.239s-4.566-0.413-6.654-1.239c-2.088-0.825-3.894-1.968-5.415-3.425
		c-1.523-1.457-2.73-3.208-3.621-5.253C126.606,43.271,126.159,41.008,126.159,38.53z M134.12,38.53
		c0,1.219,0.185,2.436,0.555,3.652c0.369,1.219,0.924,2.307,1.663,3.263c0.739,0.957,1.675,1.74,2.806,2.349
		c1.131,0.609,2.479,0.914,4.045,0.914s2.914-0.305,4.046-0.914c1.13-0.607,2.064-1.392,2.805-2.349
		c0.739-0.956,1.294-2.044,1.664-3.263c0.369-1.217,0.555-2.436,0.555-3.652s-0.186-2.425-0.555-3.621
		c-0.37-1.195-0.925-2.272-1.664-3.229c-0.74-0.955-1.675-1.729-2.805-2.315c-1.132-0.586-2.479-0.88-4.046-0.88
		c-1.565,0-2.914,0.294-4.045,0.88c-1.131,0.588-2.066,1.36-2.806,2.315c-0.739,0.957-1.294,2.034-1.663,3.229
		C134.304,36.106,134.12,37.313,134.12,38.53z"/>
	<path fill="#273444" d="M166.479,4.996h7.829v31.185h0.196l11.874-13.177h10.047l-13.57,14.155l14.419,17.159H186.9l-12.396-16.05
		h-0.196v16.05h-7.829V4.996z"/>
	<path fill="#273444" d="M217.76,22.09c2.044,0,3.794,0.358,5.252,1.076c1.457,0.719,2.652,1.664,3.589,2.838
		c0.936,1.174,1.619,2.523,2.055,4.045c0.436,1.523,0.652,3.089,0.652,4.696v19.573h-7.828V37.094c0-0.913-0.065-1.858-0.195-2.838
		c-0.131-0.978-0.403-1.868-0.815-2.674c-0.414-0.805-1.001-1.468-1.762-1.99c-0.763-0.521-1.772-0.781-3.034-0.781
		s-2.35,0.238-3.262,0.718c-0.913,0.479-1.676,1.12-2.283,1.924c-0.609,0.805-1.066,1.708-1.37,2.707
		c-0.306,1-0.457,2.022-0.457,3.066v17.094h-7.829V4.996h7.829v22.379h0.13c0.305-0.652,0.752-1.295,1.338-1.926
		c0.588-0.63,1.272-1.195,2.057-1.695c0.781-0.5,1.674-0.901,2.675-1.207C215.498,22.242,216.586,22.09,217.76,22.09z"/>
	<path fill="#273444" d="M256.448,50.338h-0.194c-0.783,1.394-2.045,2.535-3.784,3.426c-1.74,0.891-3.719,1.338-5.938,1.338
		c-1.262,0-2.577-0.163-3.947-0.489c-1.37-0.325-2.632-0.87-3.784-1.632c-1.151-0.76-2.108-1.762-2.87-3.001
		s-1.142-2.772-1.142-4.601c0-2.349,0.661-4.219,1.989-5.61c1.326-1.392,3.033-2.456,5.121-3.196
		c2.088-0.738,4.403-1.229,6.949-1.468c2.545-0.238,5.033-0.358,7.471-0.358v-0.783c0-1.956-0.709-3.401-2.121-4.337
		c-1.414-0.937-3.1-1.402-5.057-1.402c-1.654,0-3.24,0.348-4.763,1.043c-1.522,0.697-2.784,1.545-3.784,2.545l-4.045-4.764
		c1.782-1.651,3.838-2.892,6.165-3.719c2.326-0.824,4.687-1.238,7.079-1.238c2.783,0,5.077,0.391,6.883,1.174
		c1.805,0.783,3.229,1.806,4.273,3.066c1.044,1.262,1.771,2.674,2.186,4.239c0.413,1.565,0.62,3.133,0.62,4.697v19.051h-7.308
		V50.338L256.448,50.338z M256.319,40.03h-1.762c-1.264,0-2.59,0.055-3.98,0.163c-1.393,0.108-2.676,0.349-3.85,0.718
		c-1.175,0.37-2.152,0.893-2.937,1.565c-0.782,0.675-1.175,1.599-1.175,2.772c0,0.739,0.164,1.359,0.49,1.859
		s0.75,0.902,1.271,1.207s1.107,0.521,1.762,0.652c0.652,0.13,1.305,0.195,1.957,0.195c2.696,0,4.74-0.719,6.133-2.154
		c1.393-1.435,2.088-3.393,2.088-5.871V40.03H256.319z"/>
	<path fill="#273444" d="M266.3,29.267v-6.263h5.48v-9.069h7.699v9.069h7.828v6.263h-7.828v14.548c0,1.393,0.25,2.544,0.75,3.458
		c0.5,0.913,1.619,1.37,3.359,1.37c0.521,0,1.086-0.055,1.696-0.163c0.608-0.108,1.151-0.271,1.631-0.489l0.261,6.133
		c-0.695,0.262-1.521,0.467-2.479,0.619s-1.87,0.229-2.739,0.229c-2.088,0-3.784-0.294-5.09-0.882
		c-1.306-0.586-2.339-1.392-3.099-2.414c-0.763-1.021-1.283-2.194-1.565-3.521c-0.284-1.326-0.425-2.751-0.425-4.273V29.267H266.3z"
		/>
	<path fill="#273444" d="M299.509,4.996v21.986h0.195c0.392-0.521,0.892-1.064,1.501-1.631c0.608-0.564,1.337-1.087,2.187-1.566
		c0.848-0.478,1.836-0.881,2.969-1.207c1.129-0.326,2.414-0.488,3.849-0.488c2.219,0,4.263,0.425,6.134,1.271
		c1.869,0.85,3.479,2.014,4.827,3.49c1.349,1.479,2.392,3.22,3.132,5.221c0.739,1.999,1.109,4.152,1.109,6.458
		c0,2.305-0.359,4.469-1.076,6.491c-0.719,2.022-1.74,3.784-3.066,5.284c-1.328,1.501-2.937,2.697-4.828,3.589
		c-1.893,0.891-4.035,1.337-6.426,1.337c-2.219,0-4.297-0.479-6.23-1.436c-1.936-0.957-3.448-2.35-4.534-4.176h-0.132v4.697h-7.438
		V4.996H299.509z M317.45,38.53c0-1.218-0.186-2.425-0.555-3.621c-0.371-1.195-0.925-2.272-1.664-3.229
		c-0.74-0.955-1.674-1.729-2.806-2.315c-1.132-0.586-2.458-0.88-3.979-0.88c-1.436,0-2.719,0.305-3.85,0.913
		c-1.132,0.608-2.099,1.394-2.902,2.349c-0.807,0.958-1.414,2.044-1.828,3.262c-0.412,1.218-0.618,2.436-0.618,3.652
		s0.206,2.426,0.618,3.621c0.414,1.196,1.021,2.273,1.828,3.229c0.805,0.957,1.771,1.729,2.902,2.316
		c1.131,0.588,2.414,0.881,3.85,0.881c1.521,0,2.849-0.305,3.979-0.914c1.132-0.607,2.065-1.392,2.806-2.349
		c0.74-0.956,1.293-2.044,1.664-3.263C317.265,40.965,317.45,39.749,317.45,38.53z"/>
	<path fill="#273444" d="M350.983,50.338h-0.194c-0.783,1.394-2.046,2.535-3.784,3.426c-1.74,0.891-3.719,1.338-5.938,1.338
		c-1.262,0-2.578-0.163-3.947-0.489c-1.37-0.325-2.633-0.87-3.784-1.632c-1.151-0.76-2.108-1.762-2.87-3.001
		s-1.143-2.772-1.143-4.601c0-2.349,0.662-4.219,1.99-5.61c1.326-1.392,3.033-2.456,5.121-3.196
		c2.088-0.738,4.403-1.229,6.948-1.468c2.546-0.238,5.034-0.358,7.472-0.358v-0.783c0-1.956-0.709-3.401-2.121-4.337
		c-1.414-0.937-3.1-1.402-5.057-1.402c-1.654,0-3.24,0.348-4.763,1.043c-1.522,0.697-2.784,1.545-3.784,2.545l-4.045-4.764
		c1.782-1.651,3.838-2.892,6.165-3.719c2.326-0.824,4.687-1.238,7.079-1.238c2.783,0,5.076,0.391,6.883,1.174
		c1.805,0.783,3.229,1.806,4.273,3.066c1.043,1.262,1.771,2.674,2.186,4.239c0.413,1.565,0.62,3.133,0.62,4.697v19.051h-7.308
		V50.338L350.983,50.338z M350.854,40.03h-1.762c-1.263,0-2.589,0.055-3.98,0.163c-1.393,0.108-2.674,0.349-3.848,0.718
		c-1.176,0.37-2.154,0.893-2.938,1.565c-0.782,0.675-1.174,1.599-1.174,2.772c0,0.739,0.162,1.359,0.488,1.859
		s0.75,0.902,1.272,1.207c0.521,0.305,1.108,0.521,1.761,0.652c0.653,0.13,1.307,0.195,1.958,0.195c2.696,0,4.74-0.719,6.134-2.154
		c1.391-1.435,2.088-3.393,2.088-5.871V40.03L350.854,40.03z"/>
	<path fill="#273444" d="M360.836,29.267v-6.263h5.479v-9.069h7.699v9.069h7.829v6.263h-7.829v14.548c0,1.393,0.25,2.544,0.75,3.458
		c0.5,0.913,1.62,1.37,3.36,1.37c0.521,0,1.086-0.055,1.696-0.163c0.607-0.108,1.15-0.271,1.631-0.489l0.261,6.133
		c-0.696,0.262-1.522,0.467-2.479,0.619s-1.869,0.229-2.738,0.229c-2.088,0-3.784-0.294-5.09-0.882
		c-1.305-0.586-2.338-1.392-3.1-2.414c-0.762-1.021-1.283-2.194-1.564-3.521c-0.284-1.326-0.426-2.751-0.426-4.273V29.267H360.836z"
		/>
</g>
</svg>
