<?xml version="1.0" encoding="utf-8"?>
<!-- Generator: Adobe Illustrator 16.0.0, SVG Export Plug-In . SVG Version: 6.00 Build 0)  -->
<!DOCTYPE svg PUBLIC "-//W3C//DTD SVG 1.1//EN" "http://www.w3.org/Graphics/SVG/1.1/DTD/svg11.dtd">
<svg version="1.1" id="Layer_1" xmlns="http://www.w3.org/2000/svg" xmlns:xlink="http://www.w3.org/1999/xlink" x="0px" y="0px"
	 width="61.5px" height="67.333px" viewBox="0 0 61.5 67.333" enable-background="new 0 0 61.5 67.333" xml:space="preserve">
<g>
	<path fill="#47A7F6" d="M29.079,52.048c-7.365-5.188-11.814-14.431-10.83-24.488c0.386-3.934,1.581-7.576,3.365-10.793
		c-8.604,0.273-16.029,6.674-17.278,15.49c-1.391,9.821,5.409,18.914,15.206,20.375v0.002L17.947,63.89
		c7.557,0.051,14.517-3.439,19.067-9.086c-2.713-0.281-5.225-1.172-7.429-2.527C29.401,52.232,29.232,52.155,29.079,52.048z"/>
	<path fill="#47A7F6" d="M40.048,16.655l2.303-13.213C33.647,3.854,25.894,9.05,21.613,16.765c1.027-0.031,2.068,0.005,3.121,0.152
		c2.686,0.381,5.146,1.338,7.282,2.723c0.176,0.054,0.337,0.132,0.482,0.236c6.97,5.14,10.967,13.861,9.667,23.053
		c-0.64,4.519-2.483,8.564-5.15,11.873c0.056,0.007,0.11,0.017,0.166,0.021c10.204,0.961,19.331-7.01,20.387-17.803
		C58.621,26.278,50.179,17.689,40.048,16.655z"/>
	<path fill="#47A7F6" d="M32.498,19.878c-0.145-0.105-0.306-0.185-0.482-0.236c-2.135-1.385-4.596-2.342-7.282-2.723
		c-1.053-0.148-2.093-0.186-3.121-0.152c-1.784,3.217-2.979,6.859-3.365,10.793c-0.984,10.059,3.465,19.301,10.83,24.488
		c0.154,0.106,0.323,0.184,0.507,0.229c2.204,1.355,4.716,2.246,7.429,2.527c2.667-3.31,4.511-7.355,5.15-11.873
		C43.464,33.739,39.467,25.017,32.498,19.878z"/>
	<path fill="#146DED" d="M32.498,19.878c-0.145-0.105-0.306-0.185-0.482-0.236c-2.135-1.385-4.596-2.342-7.282-2.723
		c-1.053-0.148-2.093-0.186-3.121-0.152c-1.784,3.217-2.979,6.859-3.365,10.793c-0.984,10.059,3.465,19.301,10.83,24.488
		c0.154,0.106,0.323,0.184,0.507,0.229c2.204,1.355,4.716,2.246,7.429,2.527c2.667-3.31,4.511-7.355,5.15-11.873
		C43.464,33.739,39.467,25.017,32.498,19.878z"/>
</g>
</svg>
