<svg xmlns="http://www.w3.org/2000/svg" version="1.1" xmlns:xlink="http://www.w3.org/1999/xlink" xmlns:svgjs="http://svgjs.dev/svgjs" width="1000" height="237" viewBox="0 0 1000 237"><g transform="matrix(1,0,0,1,-0.6060606060606233,0.28592525112064493)"><svg viewBox="0 0 396 94" data-background-color="#ffffff" preserveAspectRatio="xMidYMid meet" height="237" width="1000" xmlns="http://www.w3.org/2000/svg" xmlns:xlink="http://www.w3.org/1999/xlink"><g id="tight-bounds" transform="matrix(1,0,0,1,0.2400000000000091,-0.1134049519212681)"><svg viewBox="0 0 395.52 94.22680990384256" height="94.22680990384256" width="395.52"><g><svg viewBox="0 0 534.2828298286365 127.28500870031858" height="94.22680990384256" width="395.52"><g transform="matrix(1,0,0,1,138.76282982863654,39.33291521717255)"><svg viewBox="0 0 395.52 48.61917826597349" height="48.61917826597349" width="395.52"><g><svg viewBox="0 0 395.52 48.61917826597349" height="48.61917826597349" width="395.52"><g><svg viewBox="0 0 395.52 48.61917826597349" height="48.61917826597349" width="395.52"><g transform="matrix(1,0,0,1,0,0)"><svg width="395.52" viewBox="3.25 -36.25 298.13 36.65" height="48.61917826597349" data-palette-color="#77d4fc"><path d="M26.7-29.3L26.7-29.3Q26.7-28 26.05-27.28 25.4-26.55 24.3-26.55L24.3-26.55Q24-26.55 23.53-26.65 23.05-26.75 22.95-26.75L22.95-26.75Q23.1-27.55 23.1-28.15L23.1-28.15Q23.1-30.1 21.08-31.85 19.05-33.6 15.43-33.6 11.8-33.6 9.68-32.02 7.55-30.45 7.55-27.83 7.55-25.2 9.65-23.33 11.75-21.45 14.78-20.18 17.8-18.9 20.8-17.6 23.8-16.3 25.9-14.35 28-12.4 28-9.85L28-9.85Q28-5.5 24.23-2.55 20.45 0.4 15.23 0.4 10 0.4 6.63-2.05 3.25-4.5 3.25-8.25L3.25-8.25Q3.25-9.7 4.03-10.65 4.8-11.6 6.13-11.6 7.45-11.6 8-10.55L8-10.55Q6.85-9.5 6.85-7.9L6.85-7.9Q6.85-5.5 9.05-3.9 11.25-2.3 15.08-2.3 18.9-2.3 21.83-4.38 24.75-6.45 24.75-9.3L24.75-9.3Q24.75-11.05 23.23-12.5 21.7-13.95 19.45-14.9 17.2-15.85 14.53-17.05 11.85-18.25 9.6-19.43 7.35-20.6 5.83-22.63 4.3-24.65 4.3-27.2L4.3-27.2Q4.3-31.1 7.75-33.68 11.2-36.25 15.88-36.25 20.55-36.25 23.63-34.2 26.7-32.15 26.7-29.3ZM38.3-16.75Q38.95-9.5 42.65-5.85 46.35-2.2 51.52-2.2 56.7-2.2 60-6.8L60-6.8Q62.7-10.6 62.7-16.4L62.7-16.4Q62.7-17.5 62.6-18.75L62.6-18.75Q62.05-26.05 58.32-29.75 54.6-33.45 49.37-33.45 44.15-33.45 40.9-28.8L40.9-28.8Q38.2-25 38.2-19.3L38.2-19.3Q38.2-18.05 38.3-16.75L38.3-16.75ZM50.47-36Q57.25-36 61.5-31.15 65.75-26.3 65.75-17.93 65.75-9.55 61.47-4.58 57.2 0.4 50.45 0.4 43.7 0.4 39.4-4.5 35.1-9.4 35.1-17.78 35.1-26.15 39.4-31.08 43.7-36 50.47-36ZM98.85-30.35L98.85-30.35Q98.85-29.35 98.25-28.75 97.65-28.15 96.77-28.15 95.9-28.15 95.5-28.3L95.5-28.3Q95.55-28.55 95.55-28.75L95.55-28.75Q95.55-30.4 93.8-31.73 92.05-33.05 88.55-33.05L88.55-33.05Q83.7-33.05 80.02-29.08 76.35-25.1 76.35-17.85 76.35-10.6 79.55-6.58 82.75-2.55 88.45-2.55L88.45-2.55Q91.4-2.55 93.92-3.7 96.45-4.85 98.05-6.45L98.05-6.45Q98.85-6.35 98.85-5.25L98.85-5.25Q98.85-3.65 95.5-1.63 92.15 0.4 87.55 0.4L87.55 0.4Q81.25 0.4 77-4.38 72.75-9.15 72.75-17.3 72.75-25.45 77.62-30.73 82.5-36 89.45-36L89.45-36Q93.5-36 96.17-34.33 98.85-32.65 98.85-30.35ZM110.29-33.15L110.29-33.15 110.29-2.55Q110.29-1.45 111.44-1.05L111.44-1.05Q110.64 0.4 109.29 0.4L109.29 0.4Q107.09 0.4 107.09-2.45L107.09-2.45 107.09-33Q107.09-34.15 105.94-34.55L105.94-34.55Q106.69-36 108.04-36L108.04-36Q110.29-36 110.29-33.15ZM130.99-30.25L123.99-11.4 137.14-11.4 130.99-30.25ZM144.84-0.45L144.84-0.45Q144.24 0.4 143.09 0.4 141.94 0.4 141.32-0.18 140.69-0.75 140.24-2.2L140.24-2.2 137.99-8.85 122.99-8.85 120.64-2.85Q119.94-1.15 119.29-0.38 118.64 0.4 117.64 0.4 116.64 0.4 116.04-1.05L116.04-1.05Q117.04-1.45 117.64-3L117.64-3 129.79-33.5Q129.34-34.7 128.69-35.35L128.69-35.35Q129.74-36 130.59-36L130.59-36Q132.04-36 132.84-33.6L132.84-33.6 143.34-2.5Q143.84-0.95 144.84-0.45ZM150.69-6.05L150.69-6.05 150.69-33Q150.69-34.15 149.54-34.55L149.54-34.55Q150.29-36 151.69-36L151.69-36Q153.89-36 153.89-33.15L153.89-33.15 153.89-5.95Q153.89-4.15 154.74-3.38 155.59-2.6 157.59-2.6L157.59-2.6 166.59-2.6Q169.14-2.6 170.29-4.7L170.29-4.7Q170.94-4.55 171.36-4 171.79-3.45 171.79-2.85L171.79-2.85Q171.79 0 166.49 0L166.49 0 157.74 0Q154.14 0 152.41-1.43 150.69-2.85 150.69-6.05ZM201.04-29.3L201.04-29.3Q201.04-28 200.39-27.28 199.74-26.55 198.64-26.55L198.64-26.55Q198.34-26.55 197.86-26.65 197.39-26.75 197.29-26.75L197.29-26.75Q197.44-27.55 197.44-28.15L197.44-28.15Q197.44-30.1 195.41-31.85 193.39-33.6 189.76-33.6 186.14-33.6 184.01-32.02 181.89-30.45 181.89-27.83 181.89-25.2 183.99-23.33 186.09-21.45 189.11-20.18 192.14-18.9 195.14-17.6 198.14-16.3 200.24-14.35 202.34-12.4 202.34-9.85L202.34-9.85Q202.34-5.5 198.56-2.55 194.79 0.4 189.56 0.4 184.34 0.4 180.96-2.05 177.59-4.5 177.59-8.25L177.59-8.25Q177.59-9.7 178.36-10.65 179.14-11.6 180.46-11.6 181.79-11.6 182.34-10.55L182.34-10.55Q181.19-9.5 181.19-7.9L181.19-7.9Q181.19-5.5 183.39-3.9 185.59-2.3 189.41-2.3 193.24-2.3 196.16-4.38 199.09-6.45 199.09-9.3L199.09-9.3Q199.09-11.05 197.56-12.5 196.04-13.95 193.79-14.9 191.54-15.85 188.86-17.05 186.19-18.25 183.94-19.43 181.69-20.6 180.16-22.63 178.64-24.65 178.64-27.2L178.64-27.2Q178.64-31.1 182.09-33.68 185.54-36.25 190.21-36.25 194.89-36.25 197.96-34.2 201.04-32.15 201.04-29.3ZM220.83 0.4L220.83 0.4Q218.63 0.4 218.63-2.7L218.63-2.7 218.68-15.85 209.58-32.1Q208.38-33.9 206.63-33.95L206.63-33.95Q206.88-34.9 207.61-35.45 208.33-36 209.18-36L209.18-36Q211.08-36 212.18-34L212.18-34 220.48-18.8 229.23-32.85Q229.88-33.85 229.88-34.5 229.88-35.15 229.48-35.55L229.48-35.55Q230.23-36 231.63-36L231.63-36Q233.28-36 233.28-34.3L233.28-34.3Q233.28-33.7 232.73-32.5L232.73-32.5 221.88-16 221.83-2.55Q221.83-1.15 222.73-0.4L222.73-0.4Q221.93 0.4 220.83 0.4ZM240.13-2.45L240.13-2.45 240.13-33Q240.13-34.15 238.98-34.55L238.98-34.55Q239.78-36 241.08-36 242.38-36 243.28-35.27 244.18-34.55 245.28-32.9L245.28-32.9 263.33-4.7 263.33-33Q263.33-34.15 262.18-34.55L262.18-34.55Q262.93-36 264.33-36L264.33-36Q266.53-36 266.53-33.15L266.53-33.15 266.53-2.55Q266.53-1.9 266.81-1.6 267.08-1.3 267.73-1.1L267.73-1.1Q266.93 0.4 265.53 0.4L265.53 0.4Q263.63 0.4 261.43-2.8L261.43-2.8 243.28-30.55 243.28-2.55Q243.28-1.45 244.43-1.05L244.43-1.05Q243.73 0.4 242.33 0.4L242.33 0.4Q240.13 0.4 240.13-2.45ZM301.38-30.35L301.38-30.35Q301.38-29.35 300.78-28.75 300.18-28.15 299.3-28.15 298.43-28.15 298.03-28.3L298.03-28.3Q298.08-28.55 298.08-28.75L298.08-28.75Q298.08-30.4 296.33-31.73 294.58-33.05 291.08-33.05L291.08-33.05Q286.23-33.05 282.55-29.08 278.88-25.1 278.88-17.85 278.88-10.6 282.08-6.58 285.28-2.55 290.98-2.55L290.98-2.55Q293.93-2.55 296.45-3.7 298.98-4.85 300.58-6.45L300.58-6.45Q301.38-6.35 301.38-5.25L301.38-5.25Q301.38-3.65 298.03-1.63 294.68 0.4 290.08 0.4L290.08 0.4Q283.78 0.4 279.53-4.38 275.28-9.15 275.28-17.3 275.28-25.45 280.15-30.73 285.03-36 291.98-36L291.98-36Q296.03-36 298.7-34.33 301.38-32.65 301.38-30.35Z" opacity="1" transform="matrix(1,0,0,1,0,0)" fill="#77d4fc" class="undefined-text-0" data-fill-palette-color="primary" id="text-0"></path></svg></g></svg></g></svg></g></svg></g><g><svg viewBox="0 0 127.28500870031858 127.28500870031858" height="127.28500870031858" width="127.28500870031858"><g><svg xmlns="http://www.w3.org/2000/svg" xmlns:xlink="http://www.w3.org/1999/xlink" version="1.1" x="0" y="0" viewBox="0 0 100 100" style="enable-background:new 0 0 100 100;" xml:space="preserve" height="127.28500870031858" width="127.28500870031858" class="icon-icon-0" data-fill-palette-color="accent" id="icon-0"><g fill="#77d4fc" data-fill-palette-color="accent"><path d="M74.988 37.5c0 13.807-11.182 25-24.988 25C50 55.604 44.396 50 37.5 50H24.988C12.5 50 0 42.969 0 25 0 6.641 12.5 0 24.988 0H50c12.5 0 24.988 7.745 24.988 25V37.5z" fill="#77d4fc" data-fill-palette-color="accent"></path></g><path d="M37.5 37.5" fill="#77d4fc" data-fill-palette-color="accent"></path><path d="M37.5 37.5" fill="#77d4fc" data-fill-palette-color="accent"></path><g fill="#77d4fc" data-fill-palette-color="accent"><g fill="#77d4fc" data-fill-palette-color="accent"><path d="M81.189 38.165C80.822 55.078 66.992 68.75 50 68.75h-6.25V62.5c0-3.448-2.808-6.25-6.25-6.25H25.623c-0.391 1.935-0.635 4.004-0.635 6.25V75c0 13.807 11.205 25 25.012 25 0-6.909 5.604-12.5 12.5-12.5h12.488C87.5 87.5 100 80.469 100 62.5 100 47.211 91.297 40.125 81.189 38.165z" fill="#77d4fc" data-fill-palette-color="accent"></path></g></g></svg></g></svg></g></svg></g><defs></defs></svg><rect width="395.52" height="94.22680990384256" fill="none" stroke="none" visibility="hidden"></rect></g></svg></g></svg>