<?xml version="1.0" encoding="UTF-8" standalone="no" ?>
<!DOCTYPE svg PUBLIC "-//W3C//DTD SVG 1.1//EN" "http://www.w3.org/Graphics/SVG/1.1/DTD/svg11.dtd">
<svg xmlns="http://www.w3.org/2000/svg" xmlns:xlink="http://www.w3.org/1999/xlink" version="1.1" width="1080" height="1080" viewBox="0 0 1080 1080" xml:space="preserve">
<desc>Created with Fabric.js 5.2.4</desc>
<defs>
</defs>
<g transform="matrix(1 0 0 1 540 540)" id="f10b69a4-bf90-41b4-84b8-da8db154659a"  >
<rect style="stroke: none; stroke-width: 1; stroke-dasharray: none; stroke-linecap: butt; stroke-dashoffset: 0; stroke-linejoin: miter; stroke-miterlimit: 4; fill: rgb(255,255,255); fill-rule: nonzero; opacity: 1; visibility: hidden;" vector-effect="non-scaling-stroke"  x="-540" y="-540" rx="0" ry="0" width="1080" height="1080" />
</g>
<g transform="matrix(1 0 0 1 540 540)" id="6be13329-1b1e-4ed5-a1d6-a5284b2e2f15"  >
</g>
<g transform="matrix(7.19 0 0 7.19 551.77 573.13)"  >
<g style="" vector-effect="non-scaling-stroke"   >
		<g transform="matrix(1.04 0 0 1.04 -12.95 -19.41)"  >
<path style="stroke: none; stroke-width: 1; stroke-dasharray: none; stroke-linecap: butt; stroke-dashoffset: 0; stroke-linejoin: miter; stroke-miterlimit: 4; fill: rgb(119,212,252); fill-rule: nonzero; opacity: 1;" vector-effect="non-scaling-stroke"  transform=" translate(-37.49, -31.25)" d="M 74.988 37.5 C 74.988 51.307 63.806 62.5 50 62.5 C 50 55.604 44.396 50 37.5 50 L 24.988 50 C 12.5 50 0 42.969 0 25 C 0 6.641 12.5 0 24.988 0 L 50 0 C 62.5 0 74.988 7.745 74.988 25 L 74.988 37.5 z" stroke-linecap="round" />
</g>
		<g transform="matrix(1.04 0 0 1.04 -12.94 -12.94)"  >
<path style="stroke: none; stroke-width: 1; stroke-dasharray: none; stroke-linecap: butt; stroke-dashoffset: 0; stroke-linejoin: miter; stroke-miterlimit: 4; fill: rgb(119,212,252); fill-rule: nonzero; opacity: 1;" vector-effect="non-scaling-stroke"  transform=" translate(-37.5, -37.5)" d="M 37.5 37.5" stroke-linecap="round" />
</g>
		<g transform="matrix(1.04 0 0 1.04 -12.94 -12.94)"  >
<path style="stroke: none; stroke-width: 1; stroke-dasharray: none; stroke-linecap: butt; stroke-dashoffset: 0; stroke-linejoin: miter; stroke-miterlimit: 4; fill: rgb(119,212,252); fill-rule: nonzero; opacity: 1;" vector-effect="non-scaling-stroke"  transform=" translate(-37.5, -37.5)" d="M 37.5 37.5" stroke-linecap="round" />
</g>
		<g transform="matrix(1.04 0 0 1.04 12.93 19.75)"  >
<path style="stroke: none; stroke-width: 1; stroke-dasharray: none; stroke-linecap: butt; stroke-dashoffset: 0; stroke-linejoin: miter; stroke-miterlimit: 4; fill: rgb(119,212,252); fill-rule: nonzero; opacity: 1;" vector-effect="non-scaling-stroke"  transform=" translate(-62.49, -69.08)" d="M 81.189 38.165 C 80.822 55.078 66.992 68.75 50 68.75 L 43.75 68.75 L 43.75 62.5 C 43.75 59.052 40.942 56.25 37.5 56.25 L 25.623 56.25 C 25.232 58.185 24.988 60.254 24.988 62.5 L 24.988 75 C 24.988 88.807 36.193 100 50 100 C 50 93.091 55.604 87.5 62.5 87.5 L 74.988 87.5 C 87.5 87.5 100 80.469 100 62.5 C 100 47.211 91.297 40.125 81.189 38.165 z" stroke-linecap="round" />
</g>
		<g transform="matrix(1.08 0 0 1.08 0 0)"  >
<rect style="stroke: none; stroke-width: 1; stroke-dasharray: none; stroke-linecap: butt; stroke-dashoffset: 0; stroke-linejoin: miter; stroke-miterlimit: 4; fill: none; fill-rule: nonzero; opacity: 1;" vector-effect="non-scaling-stroke"  x="-47.7405" y="-47.7405" rx="0" ry="0" width="95.481" height="95.481" />
</g>
</g>
</g>
</svg>